<svg width="1080" height="1080" viewBox="0 0 1080 1080" fill="none" xmlns="http://www.w3.org/2000/svg">
    <style>
		path {
			fill: #181B39;
		}
		@media ( prefers-color-scheme: dark ) {
			path {
				fill: #F4F0F0;
			}
		}
    </style>
<path d="M484.246 694.638C482.286 695.617 463.751 723.158 463.751 723.158C463.751 723.158 463.751 746.083 468.086 751.86C472.42 757.637 601.777 947.001 601.777 947.001C607.654 954.826 612.061 961.673 615 967.542C618.916 972.432 620.876 977.325 620.876 982.215C619.896 986.128 617.938 990.039 615 993.952C613.039 996.887 608.143 999.821 600.308 1002.76C589.533 1006.67 581.209 1011.07 575.333 1015.96C569.456 1019.87 566.518 1025.74 566.518 1033.57C566.518 1048.24 576.311 1055.58 595.901 1055.58C644.871 1055.58 698.249 1056.06 756.037 1057.04C814.802 1059 876.015 1059.98 939.677 1059.98C961.225 1059.98 972 1052.64 972 1037.97C972 1030.14 967.101 1024.28 957.309 1020.36C948.494 1016.45 940.168 1013.03 932.333 1010.09C916.662 1004.22 896.583 993.952 872.096 979.28C848.592 963.629 828.514 946.513 811.864 927.927C786.397 898.583 763.382 870.217 742.815 842.828C722.247 815.439 702.168 787.562 682.58 759.196C662.99 729.852 641.444 700.019 617.938 669.696C615.978 666.761 613.53 664.315 610.592 662.359C608.632 659.425 607.654 656.002 607.654 652.089C607.654 646.22 610.101 640.839 615 635.949C627.731 623.233 641.933 610.518 657.605 597.802C674.254 585.085 691.884 572.859 710.494 561.121C729.101 548.404 747.711 537.157 766.321 527.375C791.785 512.703 816.271 500.476 839.778 490.694C863.284 480.912 883.36 474.066 900.012 470.153C910.785 468.198 919.111 464.772 924.988 459.882C930.864 454.014 933.802 447.166 933.802 439.341C933.802 427.604 928.415 421.735 917.642 421.735C904.909 422.714 883.361 424.669 853 427.604C823.617 429.559 793.254 431.517 761.913 433.472C731.55 434.451 707.555 434.94 689.926 434.94H617.938C611.081 434.94 603.735 436.407 595.901 439.341C589.044 441.297 585.617 446.677 585.617 455.481C585.617 465.263 591.493 471.132 603.247 473.087C619.896 475.043 632.138 478.956 639.975 484.825C647.81 489.715 651.728 494.608 651.728 499.498C651.728 502.432 650.259 506.345 647.321 511.235C645.36 515.149 642.422 520.039 638.506 525.908C628.711 541.559 609.123 566.011 579.74 599.269C551.335 631.548 519.506 663.338 484.246 694.638Z"/>
<path d="M107 1037.97C107 1052.64 116.8 1059.98 136.399 1059.98C155.998 1059.98 174.617 1059 192.257 1057.04C210.876 1056.06 228.516 1055.09 245.175 1054.11C262.814 1053.13 279.964 1052.64 296.623 1052.64C314.262 1052.64 331.411 1053.13 348.072 1054.11C364.731 1055.09 381.881 1056.06 399.52 1057.04C417.16 1059 435.777 1059.98 455.378 1059.98C463.217 1059.98 469.097 1058.02 473.015 1054.11C477.917 1049.22 480.367 1043.35 480.367 1036.5C480.367 1028.67 477.427 1022.31 471.548 1017.42C465.668 1012.53 458.807 1008.62 450.968 1005.68C435.288 1000.79 424.018 994.92 417.16 988.071C411.28 980.245 408.34 968.505 408.34 952.851V901.489V850.127V806.103V760.611L406.87 119.321C407.848 105.625 409.318 90.9501 411.28 75.2969C413.239 58.6653 414.22 46.9254 414.22 40.0773C414.22 35.1856 413.239 30.7831 411.28 26.87C409.318 22.9567 404.909 21 398.05 21C393.149 21 386.291 22.4675 377.471 25.4025C362.772 30.294 340.722 38.1205 311.322 48.8822C282.904 59.6437 253.014 70.4054 221.656 81.1668C190.297 90.9499 162.368 98.2873 137.869 103.179C128.069 105.136 123.169 112.473 123.169 125.191C123.169 138.888 128.559 146.714 139.339 148.671C163.838 153.563 179.027 165.791 184.907 185.358C191.767 204.924 195.197 227.915 195.197 254.33V951.384C195.197 972.908 189.807 986.603 179.027 992.473C168.248 997.364 155.508 1002.26 140.809 1007.15C130.029 1011.06 121.699 1015.46 115.82 1020.36C109.94 1024.27 107 1030.14 107 1037.97Z" />
<circle cx="772.121" cy="181.782" r="160.782" fill="#F43F5E"/>
</svg>
