<svg width="1080" height="1080" viewBox="0 0 1080 1080" fill="none" xmlns="http://www.w3.org/2000/svg">
<rect width="1080" height="1080" rx="4" fill="#181B39"/>
<path d="M512.167 620.33C510.999 620.914 499.961 637.337 499.961 637.337C499.961 637.337 499.961 651.008 502.542 654.453C505.124 657.898 582.162 770.819 582.162 770.819C585.661 775.485 588.286 779.569 590.036 783.068C592.368 785.984 593.536 788.902 593.536 791.818C592.952 794.151 591.786 796.484 590.036 798.817C588.869 800.567 585.953 802.317 581.287 804.067C574.87 806.4 569.912 809.025 566.413 811.941C562.913 814.275 561.163 817.775 561.163 822.441C561.163 831.19 566.995 835.565 578.662 835.565C607.826 835.565 639.615 835.856 674.03 836.44C709.027 837.606 745.482 838.189 783.396 838.189C796.229 838.189 802.646 833.815 802.646 825.065C802.646 820.399 799.728 816.9 793.896 814.566C788.647 812.232 783.688 810.191 779.022 808.442C769.689 804.942 757.731 798.817 743.149 790.068C729.151 780.735 717.193 770.528 707.278 759.445C692.111 741.946 678.405 725.031 666.156 708.699C653.906 692.366 641.948 675.742 630.283 658.827C618.616 641.329 605.785 623.539 591.786 605.456C590.618 603.706 589.161 602.248 587.411 601.082C586.244 599.332 585.661 597.291 585.661 594.957C585.661 591.457 587.119 588.249 590.036 585.333C597.618 577.749 606.076 570.168 615.409 562.584C625.325 555.001 635.824 547.71 646.907 540.711C657.989 533.128 669.072 526.421 680.155 520.587C695.32 511.838 709.902 504.547 723.901 498.714C737.9 492.881 749.857 488.798 759.774 486.465C766.189 485.299 771.148 483.256 774.648 480.34C778.147 476.841 779.897 472.757 779.897 468.091C779.897 461.092 776.689 457.592 770.273 457.592C762.69 458.176 749.857 459.342 731.776 461.092C714.277 462.258 696.195 463.425 677.53 464.591C659.447 465.175 645.157 465.466 634.658 465.466H591.786C587.702 465.466 583.328 466.341 578.662 468.091C574.578 469.257 572.537 472.466 572.537 477.715C572.537 483.549 576.037 487.049 583.037 488.215C592.952 489.381 600.243 491.714 604.91 495.214C609.576 498.13 611.909 501.048 611.909 503.964C611.909 505.713 611.035 508.047 609.285 510.963C608.117 513.297 606.367 516.213 604.035 519.712C598.202 529.046 586.536 543.627 569.038 563.459C552.121 582.708 533.165 601.665 512.167 620.33Z" fill="#F4F0F0"/>
<path d="M287.088 825.065C287.088 833.815 292.921 838.189 304.587 838.189C316.253 838.189 327.335 837.606 337.835 836.439C348.917 835.856 359.416 835.273 369.332 834.69C379.831 834.106 390.039 833.815 399.955 833.815C410.454 833.815 420.662 834.106 430.579 834.69C440.494 835.273 450.702 835.856 461.201 836.439C471.701 837.606 482.782 838.189 494.449 838.189C499.115 838.189 502.615 837.023 504.947 834.69C507.864 831.774 509.323 828.274 509.323 824.19C509.323 819.524 507.573 815.732 504.073 812.816C500.573 809.9 496.49 807.567 491.824 805.817C482.491 802.901 475.783 799.401 471.701 795.317C468.201 790.652 466.451 783.652 466.451 774.319V743.696V713.073V686.825V659.702L465.576 277.355C466.158 269.189 467.033 260.44 468.201 251.107C469.367 241.191 469.951 234.191 469.951 230.108C469.951 227.192 469.367 224.567 468.201 222.234C467.033 219.901 464.408 218.734 460.326 218.734C457.409 218.734 453.327 219.609 448.077 221.359C439.328 224.275 426.204 228.942 408.704 235.358C391.789 241.774 373.999 248.19 355.333 254.607C336.668 260.439 320.044 264.814 305.462 267.731C299.629 268.897 296.713 273.272 296.713 280.855C296.713 289.021 299.921 293.687 306.337 294.854C320.919 297.77 329.96 305.061 333.46 316.727C337.543 328.393 339.584 342.1 339.584 357.849V773.444C339.584 786.277 336.376 794.443 329.96 797.942C323.544 800.858 315.961 803.776 307.212 806.692C300.796 809.025 295.838 811.65 292.338 814.566C288.838 816.9 287.088 820.399 287.088 825.065Z" fill="#F4F0F0"/>
<ellipse cx="683.544" cy="314.43" rx="95.6962" ry="95.6962" fill="#F43F5E"/>
</svg>
